<svg xmlns="http://www.w3.org/2000/svg" xmlns:xlink="http://www.w3.org/1999/xlink" width="1366" zoomAndPan="magnify" viewBox="0 0 1024.5 576" height="768" preserveAspectRatio="xMidYMid meet" version="1.0"><metadata><ContainsAiGeneratedContent>Yes</ContainsAiGeneratedContent></metadata><defs><g/><clipPath id="154ad95156"><path d="M 0 0.140625 L 1024 0.140625 L 1024 575.859375 L 0 575.859375 Z M 0 0.140625 " clip-rule="nonzero"/></clipPath></defs><g clip-path="url(#154ad95156)"><path fill="#ffffff" d="M 0 0.140625 L 1024 0.140625 L 1024 575.859375 L 0 575.859375 Z M 0 0.140625 " fill-opacity="1" fill-rule="nonzero"/><path fill="#f3efe7" d="M 0 0.140625 L 1024 0.140625 L 1024 575.859375 L 0 575.859375 Z M 0 0.140625 " fill-opacity="1" fill-rule="nonzero"/></g><g fill="#000000" fill-opacity="1"><g transform="translate(839.016617, 55.609627)"><g><path d="M 39 -23.53125 C 40.125 -22.207031 40.945312 -20.734375 41.46875 -19.109375 C 41.988281 -17.484375 42.210938 -15.8125 42.140625 -14.09375 C 42.078125 -12.375 41.738281 -10.703125 41.125 -9.078125 C 40.507812 -7.453125 39.644531 -5.988281 38.53125 -4.6875 C 37.414062 -3.382812 36.078125 -2.359375 34.515625 -1.609375 C 33.421875 -1.078125 32.273438 -0.753906 31.078125 -0.640625 C 29.878906 -0.535156 28.75 -0.691406 27.6875 -1.109375 C 26.632812 -1.523438 25.785156 -2.242188 25.140625 -3.265625 C 24.191406 -2.296875 23.113281 -1.582031 21.90625 -1.125 C 20.351562 -0.53125 18.773438 -0.375 17.171875 -0.65625 C 15.578125 -0.945312 14.148438 -1.59375 12.890625 -2.59375 C 11.628906 -3.601562 10.71875 -4.882812 10.15625 -6.4375 C 9.832031 -7.40625 9.640625 -8.398438 9.578125 -9.421875 C 9.523438 -10.441406 9.566406 -11.453125 9.703125 -12.453125 C 9.890625 -13.710938 10.269531 -14.9375 10.84375 -16.125 C 11.425781 -17.320312 12.253906 -18.242188 13.328125 -18.890625 C 14.003906 -19.296875 14.71875 -19.566406 15.46875 -19.703125 C 16.21875 -19.835938 16.96875 -19.890625 17.71875 -19.859375 C 18.394531 -19.804688 19.054688 -19.710938 19.703125 -19.578125 C 20.347656 -19.441406 20.988281 -19.304688 21.625 -19.171875 C 21.707031 -19.148438 21.898438 -19.082031 22.203125 -18.96875 C 22.515625 -18.863281 22.851562 -18.738281 23.21875 -18.59375 C 23.582031 -18.445312 23.898438 -18.304688 24.171875 -18.171875 C 24.441406 -18.035156 24.5625 -17.941406 24.53125 -17.890625 C 24.632812 -18.179688 24.710938 -18.488281 24.765625 -18.8125 C 24.828125 -19.132812 24.894531 -19.441406 24.96875 -19.734375 C 25.15625 -20.484375 25.5 -21.03125 26 -21.375 C 26.5 -21.726562 27.054688 -21.898438 27.671875 -21.890625 C 28.285156 -21.878906 28.867188 -21.71875 29.421875 -21.40625 C 29.972656 -21.101562 30.390625 -20.664062 30.671875 -20.09375 C 30.953125 -19.53125 31 -18.875 30.8125 -18.125 C 30.519531 -16.96875 30.289062 -15.8125 30.125 -14.65625 C 29.96875 -13.507812 29.890625 -12.34375 29.890625 -11.15625 C 29.859375 -10.914062 29.84375 -10.550781 29.84375 -10.0625 C 29.84375 -9.582031 29.847656 -9.085938 29.859375 -8.578125 C 29.878906 -8.066406 29.921875 -7.613281 29.984375 -7.21875 C 30.054688 -6.832031 30.171875 -6.613281 30.328125 -6.5625 C 30.753906 -6.425781 31.21875 -6.5 31.71875 -6.78125 C 32.21875 -7.0625 32.6875 -7.410156 33.125 -7.828125 C 33.570312 -8.242188 33.90625 -8.601562 34.125 -8.90625 C 34.632812 -9.519531 35.039062 -10.207031 35.34375 -10.96875 C 35.65625 -11.738281 35.890625 -12.515625 36.046875 -13.296875 C 36.347656 -14.984375 36.1875 -16.460938 35.5625 -17.734375 C 34.945312 -19.015625 34.023438 -20.101562 32.796875 -21 C 31.578125 -21.90625 30.195312 -22.625 28.65625 -23.15625 C 27.113281 -23.695312 25.554688 -24.046875 23.984375 -24.203125 C 22.410156 -24.367188 20.984375 -24.359375 19.703125 -24.171875 C 17.898438 -23.898438 16.238281 -23.332031 14.71875 -22.46875 C 13.207031 -21.613281 11.921875 -20.523438 10.859375 -19.203125 C 9.796875 -17.890625 9.007812 -16.40625 8.5 -14.75 C 7.988281 -13.101562 7.851562 -11.382812 8.09375 -9.59375 C 8.226562 -8.351562 8.460938 -7.148438 8.796875 -5.984375 C 9.140625 -4.816406 9.640625 -3.738281 10.296875 -2.75 C 10.953125 -1.769531 11.859375 -0.972656 13.015625 -0.359375 C 14.378906 0.421875 15.867188 0.957031 17.484375 1.25 C 19.097656 1.539062 20.679688 1.78125 22.234375 1.96875 C 22.984375 2.050781 23.585938 2.320312 24.046875 2.78125 C 24.503906 3.238281 24.8125 3.773438 24.96875 4.390625 C 25.132812 5.003906 25.140625 5.609375 24.984375 6.203125 C 24.835938 6.796875 24.53125 7.265625 24.0625 7.609375 C 23.59375 7.960938 22.984375 8.097656 22.234375 8.015625 C 19.984375 7.742188 17.710938 7.378906 15.421875 6.921875 C 13.140625 6.472656 11.035156 5.613281 9.109375 4.34375 C 7.628906 3.382812 6.429688 2.238281 5.515625 0.90625 C 4.609375 -0.425781 3.890625 -1.867188 3.359375 -3.421875 C 2.835938 -4.984375 2.457031 -6.609375 2.21875 -8.296875 C 1.8125 -11.140625 2.003906 -13.890625 2.796875 -16.546875 C 3.585938 -19.210938 4.890625 -21.59375 6.703125 -23.6875 C 8.515625 -25.78125 10.765625 -27.40625 13.453125 -28.5625 C 15.460938 -29.445312 17.632812 -29.992188 19.96875 -30.203125 C 22.3125 -30.421875 24.648438 -30.316406 26.984375 -29.890625 C 29.328125 -29.460938 31.535156 -28.71875 33.609375 -27.65625 C 35.691406 -26.59375 37.488281 -25.21875 39 -23.53125 Z M 19.296875 -6.640625 C 20.210938 -6.828125 20.929688 -7.363281 21.453125 -8.25 C 21.972656 -9.144531 22.15625 -10.070312 22 -11.03125 C 21.914062 -11.539062 21.6875 -12.054688 21.3125 -12.578125 C 20.9375 -13.109375 20.46875 -13.425781 19.90625 -13.53125 C 19.414062 -13.644531 18.894531 -13.59375 18.34375 -13.375 C 17.789062 -13.15625 17.289062 -12.84375 16.84375 -12.4375 C 16.40625 -12.039062 16.09375 -11.628906 15.90625 -11.203125 C 15.644531 -10.578125 15.5625 -9.9375 15.65625 -9.28125 C 15.75 -8.625 16.007812 -8.050781 16.4375 -7.5625 C 16.863281 -7.082031 17.425781 -6.773438 18.125 -6.640625 C 18.53125 -6.566406 18.921875 -6.566406 19.296875 -6.640625 Z M 19.296875 -6.640625 "/></g></g></g><g fill="#000000" fill-opacity="1"><g transform="translate(883.179623, 55.609627)"><g><path d="M 18.203125 -28 C 18.984375 -28.101562 19.65625 -28 20.21875 -27.6875 C 20.78125 -27.382812 21.21875 -26.945312 21.53125 -26.375 C 21.84375 -25.8125 22.003906 -25.234375 22.015625 -24.640625 C 22.023438 -24.054688 21.851562 -23.53125 21.5 -23.0625 C 21.15625 -22.59375 20.59375 -22.289062 19.8125 -22.15625 C 18.445312 -21.9375 17.078125 -21.71875 15.703125 -21.5 C 14.335938 -21.289062 12.96875 -21.078125 11.59375 -20.859375 C 11.570312 -20.859375 11.457031 -20.835938 11.25 -20.796875 C 11.050781 -20.765625 10.832031 -20.734375 10.59375 -20.703125 C 10.59375 -20.515625 10.578125 -20.378906 10.546875 -20.296875 C 10.609375 -19.679688 10.570312 -19.03125 10.4375 -18.34375 C 10.300781 -17.664062 10.191406 -17.015625 10.109375 -16.390625 C 10.109375 -16.316406 10.101562 -16.226562 10.09375 -16.125 C 10.082031 -16.03125 10.078125 -15.929688 10.078125 -15.828125 C 12.140625 -16.148438 14.191406 -16.328125 16.234375 -16.359375 C 17.015625 -16.378906 17.640625 -16.1875 18.109375 -15.78125 C 18.578125 -15.382812 18.882812 -14.882812 19.03125 -14.28125 C 19.175781 -13.675781 19.175781 -13.078125 19.03125 -12.484375 C 18.882812 -11.890625 18.578125 -11.382812 18.109375 -10.96875 C 17.640625 -10.5625 17.015625 -10.34375 16.234375 -10.3125 C 13.898438 -10.28125 11.578125 -10.023438 9.265625 -9.546875 C 9.046875 -7.960938 8.820312 -6.378906 8.59375 -4.796875 C 8.363281 -3.210938 8.128906 -1.628906 7.890625 -0.046875 C 7.753906 0.734375 7.457031 1.296875 7 1.640625 C 6.550781 1.992188 6.023438 2.164062 5.421875 2.15625 C 4.816406 2.144531 4.226562 1.984375 3.65625 1.671875 C 3.09375 1.359375 2.65625 0.921875 2.34375 0.359375 C 2.039062 -0.203125 1.941406 -0.859375 2.046875 -1.609375 C 2.585938 -4.960938 3.066406 -8.316406 3.484375 -11.671875 C 3.898438 -15.035156 4.296875 -18.394531 4.671875 -21.75 C 4.835938 -23.195312 5.253906 -24.296875 5.921875 -25.046875 C 6.585938 -25.804688 7.648438 -26.304688 9.109375 -26.546875 C 10.609375 -26.816406 12.125 -27.066406 13.65625 -27.296875 C 15.1875 -27.523438 16.703125 -27.757812 18.203125 -28 Z M 18.203125 -28 "/></g></g></g><g fill="#000000" fill-opacity="1"><g transform="translate(907.173389, 55.609627)"><g><path d="M 17.765625 -13.015625 C 18.546875 -13.066406 19.160156 -12.910156 19.609375 -12.546875 C 20.066406 -12.179688 20.375 -11.703125 20.53125 -11.109375 C 20.695312 -10.523438 20.695312 -9.921875 20.53125 -9.296875 C 20.375 -8.679688 20.0625 -8.148438 19.59375 -7.703125 C 19.125 -7.265625 18.515625 -7.019531 17.765625 -6.96875 C 15.722656 -6.8125 13.710938 -6.550781 11.734375 -6.1875 C 9.765625 -5.820312 7.800781 -5.359375 5.84375 -4.796875 C 5.28125 -4.628906 4.6875 -4.660156 4.0625 -4.890625 C 3.445312 -5.117188 2.9375 -5.484375 2.53125 -5.984375 C 2.132812 -6.484375 1.960938 -7.066406 2.015625 -7.734375 C 2.335938 -10.878906 2.648438 -14.019531 2.953125 -17.15625 C 3.265625 -20.300781 3.566406 -23.441406 3.859375 -26.578125 C 3.941406 -27.335938 4.210938 -27.953125 4.671875 -28.421875 C 5.128906 -28.890625 5.664062 -29.195312 6.28125 -29.34375 C 6.894531 -29.488281 7.488281 -29.488281 8.0625 -29.34375 C 8.644531 -29.195312 9.117188 -28.890625 9.484375 -28.421875 C 9.847656 -27.953125 9.988281 -27.335938 9.90625 -26.578125 C 9.664062 -24.085938 9.425781 -21.597656 9.1875 -19.109375 C 8.945312 -16.628906 8.703125 -14.15625 8.453125 -11.6875 C 11.492188 -12.320312 14.597656 -12.765625 17.765625 -13.015625 Z M 17.765625 -13.015625 "/></g></g></g><g fill="#000000" fill-opacity="1"><g transform="translate(929.838633, 55.609627)"><g><path d="M 22.390625 -24.609375 C 23.035156 -23.566406 23.476562 -22.394531 23.71875 -21.09375 C 23.96875 -19.789062 24.078125 -18.472656 24.046875 -17.140625 C 24.015625 -15.804688 23.90625 -14.5625 23.71875 -13.40625 C 23.457031 -11.632812 22.910156 -9.957031 22.078125 -8.375 C 21.242188 -6.789062 20.128906 -5.421875 18.734375 -4.265625 C 17.390625 -3.171875 15.832031 -2.367188 14.0625 -1.859375 C 12.289062 -1.347656 10.554688 -1.359375 8.859375 -1.890625 C 7.734375 -2.242188 6.753906 -2.820312 5.921875 -3.625 C 5.085938 -4.425781 4.390625 -5.34375 3.828125 -6.375 C 3.265625 -7.414062 2.847656 -8.472656 2.578125 -9.546875 C 2.253906 -10.722656 2.066406 -12.082031 2.015625 -13.625 C 1.960938 -15.175781 2.066406 -16.753906 2.328125 -18.359375 C 2.597656 -19.972656 3.039062 -21.476562 3.65625 -22.875 C 4.28125 -24.269531 5.113281 -25.425781 6.15625 -26.34375 C 7.238281 -27.445312 8.53125 -28.222656 10.03125 -28.671875 C 11.53125 -29.128906 13.070312 -29.285156 14.65625 -29.140625 C 16.238281 -28.992188 17.710938 -28.535156 19.078125 -27.765625 C 20.453125 -27.003906 21.554688 -25.953125 22.390625 -24.609375 Z M 15.0625 -8.9375 C 15.976562 -9.800781 16.65625 -10.800781 17.09375 -11.9375 C 17.539062 -13.082031 17.816406 -14.28125 17.921875 -15.53125 C 18.035156 -16.78125 18.007812 -17.992188 17.84375 -19.171875 C 17.6875 -20.359375 17.222656 -21.328125 16.453125 -22.078125 C 15.691406 -22.828125 14.675781 -23.1875 13.40625 -23.15625 C 12.707031 -23.15625 12.03125 -22.976562 11.375 -22.625 C 10.71875 -22.28125 10.175781 -21.828125 9.75 -21.265625 C 9.257812 -20.597656 8.90625 -19.789062 8.6875 -18.84375 C 8.476562 -17.90625 8.320312 -17.035156 8.21875 -16.234375 C 7.976562 -14.429688 8.070312 -12.660156 8.5 -10.921875 C 8.632812 -10.410156 8.816406 -9.898438 9.046875 -9.390625 C 9.273438 -8.878906 9.601562 -8.460938 10.03125 -8.140625 C 10.726562 -7.628906 11.523438 -7.445312 12.421875 -7.59375 C 13.328125 -7.738281 14.113281 -8.09375 14.78125 -8.65625 C 14.863281 -8.738281 14.957031 -8.832031 15.0625 -8.9375 Z M 15.0625 -8.9375 "/></g></g></g><g fill="#000000" fill-opacity="1"><g transform="translate(955.885552, 55.609627)"><g><path d="M 22.921875 -3.78125 C 23.378906 -3.132812 23.566406 -2.523438 23.484375 -1.953125 C 23.398438 -1.378906 23.144531 -0.875 22.71875 -0.4375 C 22.289062 -0.0078125 21.773438 0.285156 21.171875 0.453125 C 20.566406 0.628906 19.945312 0.628906 19.3125 0.453125 C 18.6875 0.285156 18.144531 -0.101562 17.6875 -0.71875 C 16.476562 -2.382812 15.128906 -3.914062 13.640625 -5.3125 C 12.148438 -6.707031 10.546875 -7.972656 8.828125 -9.109375 C 8.691406 -7.523438 8.5625 -5.929688 8.4375 -4.328125 C 8.3125 -2.734375 8.1875 -1.144531 8.0625 0.4375 C 8 1.21875 7.742188 1.835938 7.296875 2.296875 C 6.859375 2.753906 6.332031 3.0625 5.71875 3.21875 C 5.101562 3.382812 4.503906 3.390625 3.921875 3.234375 C 3.347656 3.085938 2.875 2.78125 2.5 2.3125 C 2.125 1.84375 1.960938 1.21875 2.015625 0.4375 C 2.253906 -2.488281 2.441406 -5.46875 2.578125 -8.5 C 2.710938 -11.53125 3.078125 -14.5 3.671875 -17.40625 C 3.960938 -18.90625 4.507812 -20.351562 5.3125 -21.75 C 6.125 -23.144531 7.148438 -24.296875 8.390625 -25.203125 C 9.640625 -26.117188 11.097656 -26.617188 12.765625 -26.703125 C 13.921875 -26.753906 15.015625 -26.539062 16.046875 -26.0625 C 17.085938 -25.582031 17.96875 -24.910156 18.6875 -24.046875 C 19.414062 -23.191406 19.90625 -22.222656 20.15625 -21.140625 C 20.414062 -20.066406 20.359375 -18.953125 19.984375 -17.796875 C 19.609375 -16.648438 18.992188 -15.566406 18.140625 -14.546875 C 17.296875 -13.523438 16.320312 -12.640625 15.21875 -11.890625 C 18.09375 -9.546875 20.660156 -6.84375 22.921875 -3.78125 Z M 12.125 -17.203125 C 12.28125 -17.359375 12.546875 -17.601562 12.921875 -17.9375 C 13.304688 -18.28125 13.644531 -18.640625 13.9375 -19.015625 C 14.226562 -19.390625 14.347656 -19.6875 14.296875 -19.90625 C 14.191406 -20.46875 13.984375 -20.773438 13.671875 -20.828125 C 13.367188 -20.878906 13.019531 -20.789062 12.625 -20.5625 C 12.238281 -20.332031 11.859375 -20.019531 11.484375 -19.625 C 11.109375 -19.238281 10.785156 -18.867188 10.515625 -18.515625 C 10.242188 -18.171875 10.066406 -17.921875 9.984375 -17.765625 C 9.773438 -17.148438 9.585938 -16.476562 9.421875 -15.75 C 9.960938 -15.832031 10.445312 -16 10.875 -16.25 C 11.300781 -16.507812 11.71875 -16.828125 12.125 -17.203125 Z M 12.125 -17.203125 "/></g></g></g><g fill="#000000" fill-opacity="1"><g transform="translate(981.368858, 55.609627)"><g><path d="M 20.859375 -17.609375 C 20.941406 -14.941406 21.007812 -12.265625 21.0625 -9.578125 C 21.113281 -6.898438 21.179688 -4.21875 21.265625 -1.53125 C 21.296875 -0.75 21.109375 -0.125 20.703125 0.34375 C 20.296875 0.8125 19.796875 1.117188 19.203125 1.265625 C 18.617188 1.410156 18.023438 1.410156 17.421875 1.265625 C 16.816406 1.117188 16.304688 0.8125 15.890625 0.34375 C 15.472656 -0.125 15.25 -0.75 15.21875 -1.53125 C 15.195312 -2.332031 15.175781 -3.128906 15.15625 -3.921875 C 15.144531 -4.710938 15.128906 -5.515625 15.109375 -6.328125 L 9.0625 -6.5625 C 8.84375 -5.539062 8.640625 -4.523438 8.453125 -3.515625 C 8.265625 -2.515625 8.078125 -1.503906 7.890625 -0.484375 C 7.753906 0.296875 7.453125 0.859375 6.984375 1.203125 C 6.515625 1.554688 5.972656 1.722656 5.359375 1.703125 C 4.742188 1.691406 4.160156 1.53125 3.609375 1.21875 C 3.054688 0.914062 2.625 0.484375 2.3125 -0.078125 C 2.007812 -0.640625 1.921875 -1.3125 2.046875 -2.09375 C 2.535156 -4.726562 3.082031 -7.332031 3.6875 -9.90625 C 4.289062 -12.488281 5.144531 -15 6.25 -17.4375 C 6.78125 -18.644531 7.460938 -19.945312 8.296875 -21.34375 C 9.128906 -22.738281 10.078125 -24.019531 11.140625 -25.1875 C 12.203125 -26.363281 13.375 -27.21875 14.65625 -27.75 C 15.863281 -28.257812 16.84375 -28.351562 17.59375 -28.03125 C 18.351562 -27.707031 18.945312 -27.128906 19.375 -26.296875 C 19.800781 -25.472656 20.113281 -24.515625 20.3125 -23.421875 C 20.519531 -22.335938 20.65625 -21.269531 20.71875 -20.21875 C 20.789062 -19.175781 20.835938 -18.304688 20.859375 -17.609375 Z M 10.71875 -12.53125 C 11.4375 -12.5 12.144531 -12.46875 12.84375 -12.4375 C 13.539062 -12.414062 14.238281 -12.390625 14.9375 -12.359375 C 14.914062 -13.253906 14.894531 -14.132812 14.875 -15 C 14.863281 -15.875 14.847656 -16.742188 14.828125 -17.609375 C 14.796875 -17.953125 14.78125 -18.316406 14.78125 -18.703125 C 14.78125 -19.097656 14.78125 -19.5 14.78125 -19.90625 C 14.320312 -19.363281 13.929688 -18.851562 13.609375 -18.375 C 13.078125 -17.5625 12.585938 -16.71875 12.140625 -15.84375 C 11.703125 -14.976562 11.304688 -14.101562 10.953125 -13.21875 C 10.929688 -13.101562 10.898438 -12.984375 10.859375 -12.859375 C 10.816406 -12.742188 10.769531 -12.632812 10.71875 -12.53125 Z M 10.71875 -12.53125 "/></g></g></g></svg>